<svg width="25" height="25" viewBox="0 0 25 25" fill="none" xmlns="http://www.w3.org/2000/svg">
<path d="M21.9297 16.81V8.80996C21.9293 8.45924 21.8367 8.11477 21.6612 7.81112C21.4857 7.50748 21.2334 7.25532 20.9297 7.07996L13.9297 3.07996C13.6256 2.90442 13.2808 2.81201 12.9297 2.81201C12.5786 2.81201 12.2337 2.90442 11.9297 3.07996L4.92969 7.07996C4.62595 7.25532 4.37367 7.50748 4.19815 7.81112C4.02263 8.11477 3.93005 8.45924 3.92969 8.80996V16.81C3.93005 17.1607 4.02263 17.5052 4.19815 17.8088C4.37367 18.1124 4.62595 18.3646 4.92969 18.54L11.9297 22.54C12.2337 22.7155 12.5786 22.8079 12.9297 22.8079C13.2808 22.8079 13.6256 22.7155 13.9297 22.54L20.9297 18.54C21.2334 18.3646 21.4857 18.1124 21.6612 17.8088C21.8367 17.5052 21.9293 17.1607 21.9297 16.81Z" stroke="#1877F2" stroke-width="2" stroke-linecap="round" stroke-linejoin="round"/>
<path d="M8.42969 5.02002L12.9297 7.62002L17.4297 5.02002" stroke="#1877F2" stroke-width="2" stroke-linecap="round" stroke-linejoin="round"/>
<path d="M8.42969 20.6001V15.4101L3.92969 12.8101" stroke="#1877F2" stroke-width="2" stroke-linecap="round" stroke-linejoin="round"/>
<path d="M21.9297 12.8101L17.4297 15.4101V20.6001" stroke="#1877F2" stroke-width="2" stroke-linecap="round" stroke-linejoin="round"/>
<path d="M4.19968 7.77002L12.9297 12.82L21.6597 7.77002" stroke="#1877F2" stroke-width="2" stroke-linecap="round" stroke-linejoin="round"/>
<path d="M12.9297 22.8901V12.8101" stroke="#1877F2" stroke-width="2" stroke-linecap="round" stroke-linejoin="round"/>
</svg>
